<svg version="1.2" xmlns="http://www.w3.org/2000/svg" viewBox="0 0 76 72" width="76" height="72">
	<title>Снимок экрана 2022-09-29 034043</title>
	<style>
		.s0 { fill: #000000;stroke: #000000 } 
		.s1 { fill: #ffffff;stroke: #ffffff } 
	</style>
	<path id="форма 1" class="s0" d="m25.5 57c-12.8 0-22.4-9.7-21.7-21.8-0.2-11.8 8.9-21.2 21.7-21.2 12.8 0 22.2 9.7 21.9 21.7 0.5 11.8-9.1 21.3-21.9 21.3z"/>
	<path id="форма 2" class="s1" d="m25.5 44.3c-7.6 0.1-12.8-3.7-12.2-8.9-0.5-5.3 4.7-9.1 12.2-8.7 7.6-0.3 12.8 3.6 12.2 8.9 0.6 5.4-4.6 9.3-12.2 8.7z"/>
	<path id="форма 3" class="s0" d="m23 33l6 3-6 3z"/>
</svg>